<?xml version="1.0" encoding="utf-8"?>
<!-- Generator: Adobe Illustrator 15.0.2, SVG Export Plug-In . SVG Version: 6.00 Build 0)  -->
<!DOCTYPE svg PUBLIC "-//W3C//DTD SVG 1.1//EN" "http://www.w3.org/Graphics/SVG/1.1/DTD/svg11.dtd">
<svg version="1.1" id="Слой_1" xmlns="http://www.w3.org/2000/svg" xmlns:xlink="http://www.w3.org/1999/xlink" x="0px" y="0px"
	 width="16.367px" height="18px" viewBox="0 0 16.367 18" enable-background="new 0 0 16.367 18" xml:space="preserve">
<g>
	<path fill-rule="evenodd" clip-rule="evenodd" fill="#181717" d="M0.409,15.156h2.864v2.455c0,0.12,0.038,0.218,0.115,0.294
		c0.077,0.076,0.175,0.115,0.294,0.115h2.136c0.11,0,0.207-0.039,0.287-0.115c0.081-0.076,0.121-0.174,0.121-0.294v-2.455h6.458
		c0.119,0,0.218-0.038,0.294-0.114c0.077-0.077,0.115-0.176,0.115-0.295v-1.636c0-0.119-0.038-0.218-0.115-0.294
		c-0.076-0.077-0.175-0.115-0.294-0.115H6.227v-1.509h4.348c1.705,0,3.097-0.52,4.176-1.56c1.078-1.039,1.617-2.382,1.617-4.027
		c0-1.645-0.539-2.987-1.617-4.027c-1.079-1.04-2.471-1.56-4.176-1.56H3.683c-0.12,0-0.217,0.038-0.294,0.115
		C3.312,0.212,3.273,0.311,3.273,0.429v8.042H0.409c-0.119,0-0.217,0.04-0.294,0.121S0,8.769,0,8.88v1.904
		c0,0.119,0.038,0.217,0.115,0.295c0.077,0.076,0.174,0.114,0.294,0.114h2.864v1.509H0.409c-0.119,0-0.217,0.038-0.294,0.115
		C0.039,12.894,0,12.992,0,13.111v1.636c0,0.119,0.038,0.218,0.115,0.295C0.192,15.118,0.29,15.156,0.409,15.156z M6.227,2.743
		h4.092c0.904,0,1.633,0.265,2.188,0.793c0.553,0.528,0.83,1.219,0.83,2.071c0,0.852-0.277,1.543-0.83,2.07
		c-0.555,0.529-1.283,0.794-2.188,0.794H6.227V2.743z"/>
</g>
</svg>
